<svg width="133" height="153" viewBox="0 0 133 153" fill="none" xmlns="http://www.w3.org/2000/svg">
<path fill-rule="evenodd" clip-rule="evenodd" d="M9.02084 130.206C13.3883 122.985 16.1522 122.056 25.752 122.668C17.2282 123.513 14.7386 124.822 9.02084 130.206Z" fill="#F5EFEC"/>
<path fill-rule="evenodd" clip-rule="evenodd" d="M14.823 123.998C34.0438 154.676 79.6168 162.214 95.6517 118.023C98.7532 109.473 101.834 101.428 101.834 93.6375C101.834 84.8966 97.4662 84.601 94.1115 85.5722C69.6582 92.7719 30.457 93.4264 4.21037 86.3745C-1.80274 84.7699 -1.02209 79.3016 4.31586 77.5069C28.4316 69.4416 70.1013 66.9292 94.217 75.7756C66.6411 71.8063 35.2886 72.6509 7.86042 79.4071C3.89389 80.3784 3.00775 82.2997 6.63671 83.4398C28.9168 90.3438 73.8991 88.0003 94.7023 81.8352C99.9558 80.2728 107.129 84.6221 104.703 98.9158C101.918 115.342 95.7994 129.762 86.7059 139.833C65.6073 163.797 27.2922 152.987 14.823 124.02" fill="#F5EFEC"/>
<path fill-rule="evenodd" clip-rule="evenodd" d="M63.181 106.517C62.97 107.382 64.0671 109.768 64.9743 108.501C67.2108 105.355 71.4938 103.814 77.317 104.595C81.9587 105.229 85.0391 106.791 86.3683 109.853C86.6215 110.423 88.436 110.233 88.014 108.501C87.7397 107.382 87.1701 106.39 86.6004 105.461C87.149 104.279 87.7187 103.265 88.1828 102.041C88.3938 101.492 88.3305 100.753 87.8452 100.584C87.2967 100.394 86.7903 100.711 86.4738 101.133C85.8198 101.998 85.2501 102.906 84.6593 103.793C83.9631 103.476 83.2668 103.16 82.5706 102.843C82.9926 101.724 83.4567 100.605 83.8576 99.4648C84.0686 98.8526 84.0053 98.2403 83.5622 98.008C83.1402 97.7758 82.6761 98.0714 82.4018 98.5147C81.6211 99.676 80.9038 100.901 80.1653 102.083C72.169 100.056 64.2148 102.442 63.2232 106.538" fill="#F5EFEC"/>
<path fill-rule="evenodd" clip-rule="evenodd" d="M51.7455 106.517C51.9565 107.382 50.8594 109.768 49.9521 108.501C47.7157 105.355 43.4326 103.814 37.6094 104.595C32.9677 105.229 29.8873 106.791 28.5581 109.853C28.3049 110.423 26.4905 110.233 26.9124 108.501C27.1867 107.382 27.7564 106.39 28.326 105.461C27.7775 104.279 27.2078 103.265 26.7436 102.041C26.5327 101.492 26.596 100.753 27.0812 100.584C27.6298 100.394 28.1362 100.711 28.4526 101.133C29.1067 101.998 29.6764 102.906 30.2671 103.793C30.9634 103.476 31.6596 103.16 32.3559 102.843C31.9339 101.724 31.4697 100.605 31.0689 99.4648C30.8579 98.8526 30.9212 98.2403 31.3642 98.008C31.7862 97.7758 32.2293 98.0714 32.5247 98.5147C33.3053 99.676 34.0227 100.901 34.7611 102.083C42.7575 100.056 50.7117 102.442 51.7033 106.538" fill="#F5EFEC"/>
<path fill-rule="evenodd" clip-rule="evenodd" d="M50.6484 0C43.7702 22.6546 62.2104 44.5069 47.4836 65.9791C54.4883 45.9637 36.3013 19.4876 50.6484 0ZM36.9765 25.9483C32.7357 39.9042 44.1078 53.3534 35.0354 66.5914C39.3395 54.2612 28.1573 37.9618 36.9765 25.9483ZM63.181 27.2573C58.9401 41.2132 70.3123 54.6624 61.2399 67.9005C65.544 55.5703 54.3617 39.2708 63.181 27.2573Z" fill="#F5EFEC"/>
<path fill-rule="evenodd" clip-rule="evenodd" d="M107.446 87.8525C107.931 90.4495 108.079 93.0253 108.058 95.6222C126.181 86.8813 128.861 100.077 119.493 110.359C114.092 116.313 103.922 121 96.4113 132.148C104.809 123.703 119.071 121.127 128.207 110.275C141.499 94.5032 123.312 80.1251 107.446 87.8314" fill="#F5EFEC"/>
</svg>
