<svg width="187" height="65" viewBox="0 0 187 65" fill="none" xmlns="http://www.w3.org/2000/svg">
<path d="M69.806 7.87724C69.806 7.87724 70.017 7.79277 70.207 7.79277C70.3969 7.79277 70.5868 7.81389 70.7768 7.87724C70.9667 7.9406 71.1355 8.00397 71.2833 8.08844C71.431 8.17292 71.5154 8.25738 71.5154 8.34186C71.5154 8.40521 71.3677 8.57417 71.0511 8.89095C70.7346 9.20773 70.3969 9.54562 70.017 9.90463C69.6372 10.2636 69.2784 10.6016 68.9407 10.9183C68.6031 11.2351 68.392 11.4041 68.3076 11.4252C68.0544 11.4885 67.8644 11.4885 67.6956 11.4252C67.3157 11.3618 67.168 11.2351 67.2524 11.0028C67.3368 10.7705 67.6956 10.2637 68.3498 9.48227C68.7086 9.08101 69.0252 8.72199 69.2995 8.40521C69.5739 8.08843 69.7427 7.89836 69.806 7.87724ZM68.1388 16.8527C68.0544 17.0005 67.97 17.2117 67.8855 17.5074C67.78 17.803 67.6956 18.0987 67.5901 18.3943C67.4846 18.69 67.4001 18.9645 67.3368 19.1968C67.2735 19.4291 67.2313 19.577 67.2313 19.6403C67.2313 19.7248 67.3579 19.6615 67.569 19.4714C67.78 19.2813 68.0544 19.0068 68.3498 18.6689C68.5609 18.4788 68.7719 18.2254 68.9618 17.9086C69.1518 17.5918 69.2784 17.3384 69.3628 17.1061C69.4683 16.8738 69.5527 16.6204 69.6161 16.3458C69.6794 16.0713 69.7427 15.7967 69.7849 15.5433C69.8271 15.2899 69.8482 15.0787 69.8271 14.8886C69.8271 14.6986 69.7849 14.6141 69.7216 14.6141C69.6583 14.6141 69.5739 14.6986 69.4472 14.8464C69.3206 14.9942 69.1729 15.1843 69.004 15.4166C68.8352 15.6489 68.6875 15.8812 68.5398 16.1346C68.392 16.3881 68.2654 16.6204 68.1599 16.8527H68.1388ZM67.5268 20.3795C67.2524 20.3795 67.0836 20.464 67.0203 20.6329C66.957 20.8019 66.9148 21.2031 66.9148 21.8578C66.9148 22.5125 66.9781 23.1038 67.1258 23.6318C67.2524 24.1597 67.4424 24.6243 67.6534 24.9834C68.0544 25.638 68.4976 25.9548 68.9829 25.9337C69.4683 25.9337 70.0592 25.5536 70.7557 24.8566C71.2622 24.3498 71.7265 23.6951 72.1274 22.8715C72.5284 22.0479 73.0138 20.8863 73.5836 19.3869C73.7524 18.9434 73.9002 18.521 74.0268 18.162C74.1534 17.803 74.2589 17.5918 74.3011 17.5285C74.3644 17.4229 74.47 17.3595 74.6388 17.3384C74.8076 17.3384 74.9342 17.3806 75.0187 17.5285C75.0398 17.5496 75.0187 17.7819 74.8709 18.2254C74.7443 18.6689 74.5755 19.1757 74.3644 19.8093C73.668 21.9211 72.9505 23.505 72.2329 24.561C71.5154 25.6169 70.6501 26.3349 69.6583 26.694C69.2784 26.8418 68.793 26.9052 68.2232 26.9263C67.6323 26.9263 67.1469 26.884 66.7459 26.7362C66.0706 26.4828 65.4797 25.9759 64.9943 25.1945C64.4878 24.4132 64.1924 23.5895 64.0868 22.6814C64.0024 21.9211 64.0235 21.1398 64.129 20.3161C64.2346 19.5136 64.4245 18.7322 64.72 17.972C64.9943 17.2328 65.3531 16.557 65.7751 15.9446C66.1972 15.3321 66.6615 14.8253 67.168 14.424C67.5479 14.1284 67.8855 13.8961 68.2021 13.7693C68.5187 13.6426 68.8774 13.6004 69.3206 13.6215C69.3839 13.6215 69.4472 13.6215 69.5105 13.6215C69.5738 13.6215 69.6372 13.6215 69.7005 13.6215C69.9959 13.6426 70.207 13.6849 70.3547 13.7482C70.4813 13.8116 70.629 13.9383 70.7979 14.1284C71.03 14.4029 71.1778 14.6986 71.1989 14.9942C71.22 15.2899 71.1355 15.7756 70.9245 16.4514C70.7346 17.0427 70.5024 17.6129 70.1859 18.162C69.8904 18.7111 69.5527 19.1757 69.1729 19.577C68.8141 19.8938 68.5398 20.1049 68.3287 20.2105C68.1177 20.3161 67.8433 20.3795 67.5268 20.3795ZM61.8076 11.9109C61.7443 12.3122 61.7021 12.6923 61.6388 13.0513C61.5755 13.4103 61.5333 13.6638 61.5122 13.7693L61.4277 14.1917L63.0105 14.1495C63.6014 14.1284 64.0235 14.1284 64.2768 14.1495C64.53 14.1706 64.6988 14.2129 64.7833 14.2762C65.0576 14.5085 65.0998 14.6563 64.9099 14.7619C64.72 14.8675 64.1712 14.952 63.2427 15.0365C62.7362 15.0998 62.293 15.1421 61.9342 15.1843C61.5755 15.2265 61.3644 15.2688 61.3433 15.3321C61.3222 15.3955 61.28 15.7123 61.2378 16.3036C61.1956 16.8949 61.1534 17.5918 61.0901 18.4155C61.069 18.859 61.0479 19.4714 61.0479 20.2105V22.6181C61.0479 23.4839 61.0479 24.3498 61.0901 25.2579C61.1112 26.166 61.1323 26.9896 61.1534 27.771C61.1534 28.5524 61.1956 29.2282 61.2378 29.7984C61.28 30.3686 61.3222 30.7699 61.3433 30.9599C61.4066 31.1922 61.4066 31.3189 61.3433 31.3823C61.3011 31.4457 61.1956 31.4879 61.0057 31.5512C60.7313 31.6991 60.4992 31.7202 60.2881 31.6357C60.0771 31.5724 59.8872 31.3401 59.7394 30.9177C59.5917 30.4953 59.4018 29.6928 59.1907 28.5102C59.0219 27.6443 58.8953 26.8629 58.7686 26.1871C58.642 25.5113 58.5576 24.8566 58.4943 24.202C58.431 23.5473 58.3677 22.8715 58.3466 22.1535C58.3255 21.4354 58.2833 20.5907 58.2622 19.5981L58.1355 15.9657L57.5657 16.0079C57.3547 16.0291 57.1859 16.0291 57.0592 16.0079C56.9326 15.9657 56.7849 15.8812 56.5949 15.7334C56.2784 15.3955 56.194 15.1421 56.3628 14.9731C56.5316 14.8042 56.9537 14.6563 57.6501 14.5507L58.2833 14.4663L58.4521 12.988C58.5787 11.9109 58.7686 10.8972 58.9797 9.90463C59.1907 8.91206 59.4229 8.02508 59.6972 7.20145C59.9505 6.37782 60.2459 5.68091 60.5414 5.08958C60.8579 4.49826 61.1745 4.05477 61.4911 3.73799C61.9764 3.2945 62.504 3.06219 63.0527 3.04107C63.6014 3.04107 64.129 3.23114 64.6144 3.65352C64.8255 3.88582 64.9521 4.05478 64.9943 4.16038C65.0365 4.26597 64.9943 4.4349 64.8888 4.62497C64.8044 4.73057 64.6777 4.73057 64.4878 4.62497C64.3612 4.5405 64.2557 4.51939 64.1924 4.58274C64.129 4.6461 63.9813 4.81505 63.7703 5.13183C63.3904 5.78651 63.0316 6.71573 62.6518 7.91949C62.293 9.12325 61.9975 10.4749 61.7865 11.932L61.8076 11.9109ZM52.5219 17.5285C53.0706 16.7682 53.3238 15.9868 53.3238 15.2054C53.3238 14.9309 53.2816 14.7831 53.1972 14.7831C53.1339 14.7831 53.1128 14.7831 53.0917 14.7831C53.0917 14.7831 53.0495 14.8042 52.9862 14.8042C52.5641 14.952 52.0787 15.2477 51.5722 15.6912C51.0657 16.1346 50.5592 16.6837 50.0738 17.3173C49.5884 17.9508 49.1453 18.6478 48.7443 19.408C48.3433 20.1683 48.0056 20.9075 47.7735 21.6466C47.6469 22.1323 47.5414 22.5969 47.4992 23.0404C47.4358 23.4839 47.4781 23.7162 47.5836 23.7162C47.6469 23.7162 47.7735 23.6106 47.9634 23.4206C48.1745 23.2305 48.4066 22.9771 48.681 22.6603C48.892 22.4069 49.1664 22.069 49.4829 21.6677C49.7995 21.2665 50.1583 20.823 50.517 20.3372C50.8758 19.8515 51.2346 19.3658 51.5933 18.8801C51.9521 18.3943 52.2475 17.9297 52.5219 17.5074V17.5285ZM55.2021 14.8253C55.3076 14.9309 55.392 15.0365 55.4342 15.0998C55.4975 15.1632 55.5186 15.2899 55.5186 15.4377C55.5186 15.5856 55.5186 15.8179 55.4553 16.0924C55.4131 16.3669 55.3498 16.7682 55.2654 17.2751C55.0544 18.6266 54.8855 19.767 54.7378 20.7174C54.6112 21.6677 54.5057 22.4491 54.4423 23.0827C54.379 23.7162 54.3368 24.2231 54.3368 24.6032C54.3368 24.9834 54.3579 25.279 54.4212 25.5113C54.5057 25.8703 54.5901 25.997 54.6745 25.8492C54.78 25.7014 54.9277 25.4057 55.181 24.9622C55.2654 24.8144 55.3709 24.6032 55.5186 24.2864C55.6664 23.9697 55.8352 23.6318 56.0462 23.2305C56.2573 22.8293 56.4683 22.4069 56.7216 21.9634C56.9748 21.5199 57.1859 21.0553 57.418 20.6118C57.9878 19.408 58.4099 18.5633 58.6631 18.0776C58.9375 17.5918 59.1063 17.3595 59.1907 17.3595C59.3807 17.3595 59.4862 17.444 59.5284 17.6341C59.5706 17.8241 59.5284 18.0564 59.4229 18.331C59.1274 19.2391 58.7898 20.1472 58.431 21.0975C58.0722 22.0479 57.7135 22.9137 57.3547 23.7162C56.9959 24.5187 56.6794 25.2157 56.3839 25.7859C56.0884 26.3561 55.8563 26.7151 55.6875 26.8207C55.181 27.2642 54.569 27.3486 53.8725 27.0741C53.2816 26.8418 52.8596 26.4194 52.6485 25.7859C52.4164 25.1523 52.2897 24.0964 52.2264 22.6392L52.142 20.5273L51.4034 21.6677C50.918 22.428 50.4326 23.1038 49.9472 23.6951C49.4618 24.2864 49.0608 24.6877 48.7443 24.8778C48.0901 25.3001 47.3514 25.2579 46.5284 24.7511C45.0722 23.9908 44.7556 22.3224 45.5998 19.7248C45.8742 18.9012 46.2118 18.162 46.6339 17.4651C47.056 16.7682 47.5625 16.1135 48.1534 15.4588C49.504 14.0861 50.7492 13.4103 51.9099 13.4103H52.3109C52.4375 13.4103 52.5852 13.4103 52.7118 13.4526C53.2183 13.5582 53.7037 13.7482 54.168 14.0017C54.6323 14.2551 54.9699 14.5296 55.181 14.8464L55.2021 14.8253ZM29.5819 28.8058C29.181 28.299 28.8011 27.771 28.4845 27.2431C28.168 26.7151 27.8936 26.0815 27.6615 25.3846C27.4293 24.6877 27.2605 23.8852 27.1128 22.9771C26.9861 22.0901 26.9017 21.0342 26.9017 19.8515C26.9017 19.218 26.9017 18.6478 26.9439 18.1409C26.965 17.6552 27.0073 17.1694 27.0706 16.7048C27.1339 16.2402 27.1972 15.7756 27.2816 15.2899C27.366 14.8042 27.4715 14.2551 27.5982 13.6426C27.978 11.8476 28.5689 10.1158 29.392 8.46858C30.215 6.82133 31.1647 5.38525 32.241 4.11813C33.3173 2.87213 34.478 1.85844 35.7443 1.11929C36.9894 0.380133 38.2345 0 39.4375 0C40.0284 0 40.6193 0.105585 41.2102 0.33789C41.78 0.570195 42.3076 0.865857 42.793 1.24599C43.2573 1.62613 43.6371 2.06963 43.9326 2.57648C44.2069 3.08332 44.3547 3.63241 44.3547 4.22373C44.3547 5.2163 44.228 6.12441 43.9748 6.94804C43.7216 7.77166 43.405 8.48969 43.0251 9.10213C42.6453 9.71457 42.2443 10.1792 41.8011 10.5382C41.379 10.8972 40.978 11.0662 40.6193 11.0662C40.5138 11.0662 40.366 11.045 40.1972 10.9817C40.0284 10.9183 39.8595 10.855 39.6907 10.7705C39.5219 10.686 39.3953 10.5804 39.2897 10.4748C39.1842 10.3693 39.1209 10.2637 39.1209 10.1792C39.1209 9.98912 39.353 9.75681 39.8173 9.50339C40.5138 9.01766 41.1047 8.23627 41.569 7.1381C42.0332 6.03993 42.2865 4.83616 42.2865 3.50569C42.2865 2.17521 41.8222 1.4783 40.9147 1.4783C40.1128 1.4783 39.2053 1.77396 38.2345 2.36528C37.2638 2.9566 36.3141 3.73799 35.4066 4.70945C34.4991 5.68091 33.6339 6.80021 32.853 8.08844C32.0722 9.37668 31.4602 10.7072 30.9959 12.0799C30.5316 13.4526 30.1939 14.8042 29.9829 16.1346C29.7719 17.4651 29.6663 18.8167 29.6663 20.1894C29.6663 21.5621 29.793 22.956 30.0251 24.202C30.2784 25.448 30.616 26.525 31.0592 27.4331C31.5024 28.3412 32.03 29.0593 32.642 29.5872C33.254 30.1152 33.9082 30.3686 34.6047 30.3686C35.8709 30.3686 37.0738 30.0307 38.1923 29.376C39.3108 28.7213 40.2816 27.8977 41.1258 26.9474C41.9699 25.9971 42.6242 24.9622 43.1095 23.8852C43.5949 22.8081 43.8482 21.8156 43.8482 20.9497C43.8482 20.6329 43.7849 20.4006 43.6793 20.2317C43.5738 20.0627 43.5105 19.9571 43.5105 19.8938C43.5105 19.7882 43.6371 19.7248 43.8693 19.7248C44.2492 19.7248 44.5446 19.9149 44.7345 20.2739C44.9456 20.6329 45.03 21.0975 45.03 21.6255C45.03 23.2094 44.7134 24.6032 44.1014 25.8281C43.4894 27.053 42.6875 28.1089 41.7378 28.9748C40.7881 29.8406 39.7329 30.5164 38.5933 30.9599C37.4537 31.4034 36.3985 31.6357 35.3855 31.6357C34.3725 31.6357 33.4651 31.4245 32.4521 31.0233C31.4391 30.622 30.4683 29.8829 29.5608 28.8058H29.5819Z" fill="#F5EFEC"/>
<path d="M176.128 54.0848C176.718 52.7121 176.592 51.5928 175.748 50.7059L175.178 50.1145L173.785 51.5084C171.274 54.0215 169.839 56.1756 169.459 57.9918C169.332 58.7943 169.459 59.1744 169.839 59.1744C169.923 59.1744 170.134 59.0899 170.451 58.9421C170.767 58.7943 171.147 58.6042 171.569 58.3719C172.54 57.844 173.468 57.147 174.355 56.3234C175.241 55.4787 175.832 54.7395 176.128 54.0637M186.996 40.4422C187.038 40.5689 186.743 40.8646 186.11 41.3081C185.814 41.477 185.287 41.836 184.548 42.364C183.809 42.892 183.007 43.4833 182.163 44.1591C181.319 44.8137 180.475 45.4895 179.652 46.1442C178.829 46.7989 178.175 47.3269 177.71 47.7281L176.317 48.9952L177.647 50.2624C179.757 52.2475 180.475 54.1271 179.736 55.901C179.399 56.7035 178.892 57.4427 178.217 58.1607C177.541 58.8577 176.761 59.4701 175.874 59.9769C174.988 60.4838 174.059 60.8428 173.11 61.0751C172.16 61.3074 171.274 61.3496 170.472 61.2018C169.839 61.1173 169.332 60.9695 168.952 60.8006C168.572 60.6316 168.15 60.3148 167.686 59.8713C167.011 59.1744 166.715 58.3719 166.821 57.5272C166.926 56.6613 167.391 55.542 168.256 54.1271C168.593 53.6413 169.058 53.05 169.628 52.3742C170.197 51.6773 170.746 51.1071 171.253 50.6214C171.759 50.1357 172.202 49.6922 172.561 49.3331C172.92 48.953 173.11 48.7418 173.11 48.6996C173.11 48.6573 172.983 48.5518 172.751 48.3617C172.519 48.1927 172.244 47.9815 171.886 47.7704C171.548 47.538 171.189 47.2424 170.767 46.8834C170.366 46.5032 170.071 46.1865 169.839 45.933C169.332 45.3206 168.994 44.5603 168.826 43.6733C168.657 42.7864 168.615 42.1106 168.699 41.6248C168.783 41.0546 168.994 40.3999 169.332 39.703C169.67 39.0061 170.092 38.3092 170.577 37.6123C171.063 36.9154 171.59 36.3029 172.139 35.7539C172.688 35.2048 173.236 34.8035 173.785 34.529C174.545 34.17 175.262 34.001 175.938 34.001C176.275 34.001 176.613 34.0221 176.929 34.0644C177.246 34.1066 177.563 34.2333 177.858 34.4656C179.335 35.2259 179.736 36.1551 179.061 37.3166C178.892 37.5489 178.639 37.5701 178.322 37.4222C178.006 37.2744 177.837 37.0843 177.837 36.852C177.837 36.4508 177.584 36.4296 177.035 36.7887C176.507 37.1477 175.811 37.8024 174.967 38.7738C173.996 39.8298 173.321 40.759 172.962 41.5615C172.603 42.364 172.413 43.2087 172.413 44.138C172.413 44.7504 172.434 45.1939 172.519 45.4684C172.582 45.743 172.772 46.0386 173.131 46.3977C173.426 46.7567 173.679 47.0101 173.869 47.2002C174.059 47.3691 174.291 47.4325 174.545 47.3902C174.798 47.348 175.157 47.1579 175.6 46.8622C176.043 46.5455 176.655 46.102 177.415 45.5318C178.175 44.9193 179.061 44.2435 180.053 43.5466C181.045 42.8497 181.847 42.2584 182.438 41.8149C183.451 41.118 184.147 40.6745 184.527 40.4844C184.907 40.3155 185.329 40.2099 185.793 40.2099C186.511 40.2099 186.912 40.2944 186.996 40.4844V40.4422ZM156.522 44.0324C156.395 44.5181 156.29 45.1939 156.205 46.0809C156.121 46.9679 156.079 47.876 156.037 48.8052C156.016 49.7344 156.037 50.5791 156.058 51.3605C156.1 52.1208 156.184 52.6488 156.311 52.9233C156.522 53.409 156.796 53.6202 157.113 53.5569C157.429 53.4935 157.936 53.1556 158.611 52.522C159.666 51.5506 160.553 50.199 161.27 48.4461C161.988 46.6933 162.431 44.7715 162.6 42.6596L162.727 41.1391L160.701 39.2173L158.928 38.1614C158.717 38.0347 158.485 38.1403 158.253 38.4993C158.02 38.8583 157.809 39.344 157.619 39.9565C157.429 40.5689 157.24 41.2658 157.05 42.005C156.86 42.7652 156.67 43.441 156.501 44.0535L156.522 44.0324ZM162.157 37.8657C162.03 37.8657 162.009 37.9924 162.093 38.267C162.178 38.5415 162.262 38.6682 162.347 38.6682C162.431 38.6682 162.473 38.5415 162.473 38.267C162.473 37.9924 162.368 37.8657 162.157 37.8657ZM159.181 55.0352C158.717 55.3097 158.147 55.4153 157.493 55.3942C156.839 55.3731 156.184 55.2464 155.551 55.0352C154.918 54.8029 154.327 54.5072 153.778 54.1059C153.23 53.7047 152.808 53.2401 152.512 52.7121C152.259 52.2264 152.027 51.614 151.837 50.8537C151.647 50.0934 151.52 49.2909 151.457 48.4461C151.394 47.5803 151.394 46.7144 151.436 45.8697C151.478 45.0038 151.605 44.2013 151.816 43.4622C151.9 43.0187 152.048 42.4696 152.259 41.8149C152.47 41.1602 152.681 40.59 152.892 40.0832C153.483 38.4993 154.243 37.2744 155.171 36.4085C156.1 35.5427 157.113 35.1203 158.231 35.1203C159.076 35.1203 159.835 35.2892 160.511 35.6483C160.891 35.9228 161.228 36.0495 161.524 36.0495C161.819 36.0495 162.199 36.2818 162.663 36.7464C163.128 37.211 163.529 37.739 163.866 38.3726C164.035 38.7316 164.183 39.0272 164.309 39.2595C164.436 39.4918 164.563 39.6397 164.689 39.6819C165.196 39.9565 165.766 40.1465 166.378 40.3155C166.99 40.4633 167.728 40.5267 168.572 40.4844C168.91 40.4422 169.227 40.3999 169.501 40.3788C169.775 40.3577 170.05 40.2944 170.303 40.2099C170.514 40.1254 170.683 40.2521 170.852 40.5689C170.999 40.9068 170.809 41.0969 170.303 41.2025C170.007 41.2869 169.67 41.3714 169.29 41.477C168.91 41.5615 168.488 41.6248 168.024 41.6671C167.348 41.7093 166.821 41.7304 166.441 41.7093C166.061 41.6882 165.428 41.5192 164.541 41.2025C164.457 42.7864 164.309 44.3069 164.098 45.743C163.887 47.179 163.571 48.5095 163.149 49.7133C162.727 50.9382 162.199 51.9941 161.566 52.8811C160.933 53.7892 160.152 54.5072 159.223 55.0352H159.181ZM145.063 36.9365C144.852 36.9365 144.556 37.1688 144.197 37.6545C143.839 38.1403 143.459 38.7527 143.079 39.4707C142.699 40.1888 142.319 40.9913 141.96 41.8571C141.602 42.723 141.327 43.5044 141.158 44.2013C140.694 46.1865 140.441 47.8759 140.42 49.2909C140.399 50.7058 140.61 52.0997 141.032 53.4724C141.412 54.655 141.855 55.4364 142.361 55.7532C142.868 56.0911 143.501 56.0489 144.261 55.6476C145.485 54.8873 146.772 53.5357 148.08 51.5717C149.389 49.6077 150.676 47.0946 151.964 44.0535C152.175 43.441 152.407 42.8708 152.639 42.364C152.871 41.8571 153.019 41.5615 153.124 41.477C153.293 41.2447 153.504 41.1602 153.757 41.2025C154.011 41.2447 154.137 41.3714 154.137 41.6037C154.137 41.836 153.947 42.3851 153.589 43.2932C153.23 44.2013 152.808 45.215 152.322 46.3343C151.837 47.4536 151.33 48.5518 150.803 49.6499C150.275 50.727 149.811 51.5717 149.431 52.1419C148.798 53.1978 148.038 54.1904 147.152 55.1196C146.266 56.0489 145.527 56.6402 144.936 56.9147C144.218 57.2737 143.416 57.4638 142.551 57.506C141.686 57.5483 140.884 57.4427 140.166 57.1682C139.407 56.8936 138.689 56.4501 138.035 55.7743C137.381 55.1196 136.895 54.296 136.6 53.3246C135.714 49.9667 135.777 46.6722 136.79 43.4622C137.17 42.2795 137.613 41.1602 138.098 40.1254C138.584 39.0906 139.111 38.2036 139.66 37.4433C140.335 36.5564 141.095 35.9228 141.939 35.5638C142.783 35.2048 143.628 35.0569 144.451 35.1625C145.274 35.2681 146.012 35.6271 146.666 36.1973C147.321 36.7675 147.827 37.5701 148.165 38.5837C148.587 40.2732 148.334 41.118 147.405 41.1602C147.025 41.2447 146.772 41.1813 146.603 40.9702C146.455 40.7379 146.287 40.2099 146.054 39.3229C145.675 37.739 145.337 36.9365 145.041 36.9365H145.063ZM132.801 35.2892C132.632 35.2892 132.379 35.4793 132.063 35.8806C131.746 36.2818 131.429 36.7887 131.071 37.4011C130.733 38.0135 130.374 38.7316 130.015 39.513C129.657 40.3155 129.319 41.118 129.024 41.9627C128.559 43.3777 128.158 44.7504 127.821 46.102C127.483 47.4536 127.166 49.1008 126.871 51.0437C126.618 52.5854 126.407 53.578 126.238 54.0004C126.069 54.4227 125.816 54.6339 125.478 54.6339C125.309 54.6339 125.14 54.6761 124.972 54.7817C124.761 54.8662 124.528 54.824 124.275 54.6339C123.98 54.5494 123.748 54.2116 123.579 53.6413C123.41 53.0711 123.199 52.0152 122.946 50.4524C122.819 49.5232 122.735 48.3828 122.692 47.0101C122.65 45.6374 122.65 44.2647 122.714 42.9131C122.777 41.5404 122.903 40.2732 123.072 39.1117C123.241 37.9502 123.431 37.0632 123.642 36.493C123.98 35.606 124.845 35.3737 126.238 35.775C126.576 35.8594 126.85 35.9439 127.04 36.0495C127.23 36.134 127.356 36.2818 127.462 36.5141C127.546 36.7464 127.589 37.021 127.589 37.38C127.589 37.739 127.567 38.2247 127.525 38.8372L127.399 40.8857L128.538 38.5626C129.551 36.5775 130.459 35.2048 131.24 34.4656C132.02 33.7053 132.865 33.4308 133.751 33.5997C134.848 33.7687 135.65 34.1911 136.157 34.8246C136.663 35.4582 136.853 36.2818 136.727 37.2322C136.642 37.8446 136.389 38.4359 135.967 38.985C135.545 39.5341 135.144 39.8297 134.764 39.872C134.173 39.9565 133.814 39.9353 133.709 39.8086C133.603 39.6819 133.54 39.2384 133.54 38.4782C133.54 37.5912 133.477 36.852 133.308 36.2185C133.16 35.606 132.991 35.2892 132.759 35.2892H132.801ZM113.554 42.8286C114.399 41.646 114.821 40.4211 114.821 39.1962C114.821 38.7527 114.757 38.5415 114.631 38.5415C114.546 38.5415 114.504 38.5415 114.462 38.5837C114.441 38.6049 114.399 38.626 114.293 38.626C113.618 38.8583 112.879 39.3229 112.077 40.0198C111.275 40.7167 110.494 41.5826 109.735 42.5752C108.975 43.5677 108.278 44.6659 107.645 45.8486C107.012 47.0312 106.506 48.2138 106.126 49.3543C105.915 50.1145 105.767 50.8326 105.683 51.5295C105.598 52.2264 105.64 52.5854 105.809 52.5854C105.894 52.5854 106.105 52.4376 106.421 52.1208C106.738 51.8251 107.118 51.4239 107.54 50.9381C107.877 50.5369 108.3 50.0301 108.806 49.3754C109.313 48.7418 109.861 48.0449 110.431 47.2846C111.001 46.5244 111.571 45.7641 112.119 45.0038C112.668 44.2435 113.153 43.5044 113.576 42.8497L113.554 42.8286ZM117.733 38.5837C117.902 38.7527 118.028 38.9005 118.113 39.0061C118.197 39.1117 118.239 39.3018 118.239 39.5341C118.239 39.7664 118.197 40.1254 118.134 40.5689C118.071 41.0124 117.965 41.6248 117.839 42.4273C117.501 44.5392 117.227 46.3343 117.015 47.8337C116.804 49.312 116.636 50.558 116.53 51.5506C116.425 52.5432 116.361 53.3457 116.361 53.937C116.361 54.5283 116.403 55.0141 116.488 55.352C116.614 55.9222 116.741 56.1122 116.91 55.8799C117.058 55.6476 117.332 55.183 117.712 54.4861C117.839 54.2538 118.028 53.9159 118.261 53.4301C118.493 52.9444 118.767 52.3953 119.084 51.7829C119.4 51.1705 119.759 50.4947 120.139 49.7978C120.519 49.1008 120.877 48.3828 121.215 47.6859C122.102 45.7852 122.756 44.4758 123.178 43.7156C123.6 42.9553 123.874 42.5963 124.001 42.5963C124.296 42.5963 124.486 42.7441 124.55 43.0187C124.613 43.3143 124.55 43.6733 124.381 44.1168C123.916 45.5318 123.389 46.9678 122.819 48.4461C122.249 49.9245 121.679 51.2972 121.131 52.5432C120.582 53.8103 120.076 54.8873 119.611 55.7954C119.147 56.7035 118.788 57.2526 118.535 57.4216C117.733 58.1185 116.783 58.2663 115.686 57.8228C114.757 57.4638 114.103 56.788 113.744 55.7954C113.386 54.8029 113.175 53.1556 113.069 50.8537L112.942 47.5381L111.803 49.3331C111.043 50.5158 110.283 51.5928 109.524 52.522C108.764 53.4513 108.131 54.0637 107.624 54.3805C106.611 55.0352 105.429 54.9718 104.121 54.1904C101.842 53.0078 101.356 50.368 102.665 46.3132C103.087 45.0249 103.636 43.8634 104.29 42.7652C104.944 41.6882 105.746 40.6323 106.675 39.6186C108.785 37.4645 110.769 36.3874 112.584 36.3874H113.217C113.428 36.3874 113.639 36.3874 113.85 36.4297C114.652 36.5986 115.412 36.8943 116.129 37.2955C116.847 37.6968 117.374 38.1403 117.712 38.626L117.733 38.5837ZM102.116 63.2081C102.707 63.7361 103.045 64.0739 103.108 64.2429C103.171 64.3907 103.108 64.5174 102.876 64.6019C102.496 64.8342 102.116 64.8976 101.736 64.792C101.356 64.7075 100.85 64.4118 100.217 63.9261C99.5414 63.3982 98.845 62.6379 98.1275 61.6664C97.4099 60.695 96.9245 59.8291 96.6713 59.0899C96.5447 58.6887 96.418 58.1607 96.2492 57.506C96.1015 56.8514 95.9538 56.1122 95.7849 55.3308C95.6161 54.5283 95.4684 53.7469 95.3417 52.9444C95.2151 52.1419 95.1307 51.4239 95.0885 50.7692C95.0041 49.8822 94.9408 48.8474 94.8986 47.6225C94.8563 46.3976 94.8352 45.1094 94.8352 43.7578C94.8352 42.4062 94.8564 40.9913 94.9408 39.5552C95.0041 38.1191 95.0674 36.7464 95.1518 35.416C95.2362 34.4023 95.3206 33.5153 95.3839 32.7761C95.4473 32.0158 95.5106 31.2767 95.6161 30.5587C95.7005 29.8195 95.806 29.0592 95.9115 28.2779C96.0171 27.4753 96.1648 26.525 96.3336 25.3635C96.3758 24.92 96.3547 24.751 96.3125 24.8355C96.2492 24.92 96.0593 25.3424 95.7638 26.1026C95.5106 26.6728 95.1307 27.6654 94.6453 29.0804C94.1599 30.4953 93.6534 32.037 93.1258 33.6842C92.5982 35.3315 92.0917 36.9998 91.6063 38.6471C91.121 40.2944 90.7411 41.6671 90.4878 42.723C89.7703 45.5529 89.2005 47.6225 88.7995 48.9108C88.3986 50.2201 88.082 50.9804 87.8709 51.1916C87.5333 51.5506 87.0057 51.7195 86.3093 51.7195C85.6128 51.7195 85.0641 51.5506 84.6843 51.1916C84.5154 51.0226 84.3044 50.6636 84.0722 50.1356C83.8401 49.6077 83.608 48.9952 83.3758 48.2772C83.1437 47.5803 82.9115 46.7989 82.6794 45.9542C82.4472 45.1094 82.2573 44.3069 82.1307 43.5044C82.0463 42.8497 81.8985 41.9416 81.6875 40.7801C81.4765 39.6397 81.2865 38.6049 81.1177 37.6756C80.9067 36.7464 80.7378 35.9228 80.6112 35.2259C80.4846 34.529 80.4213 34.1488 80.4213 34.1066C80.4213 33.9799 80.358 33.9165 80.2313 33.9165C80.1469 33.9165 80.0836 34.5712 80.0414 35.8806C79.9992 37.1899 79.9781 38.8372 79.9781 40.8223C79.9781 43.082 79.9781 44.9616 79.9359 46.4821C79.9148 48.0027 79.8726 49.3331 79.767 50.4524C79.6826 51.5717 79.5771 52.6065 79.4505 53.5357C79.3239 54.465 79.155 55.4576 78.944 56.5135C78.6908 57.8017 78.3953 58.6887 78.0576 59.2378C77.72 59.7657 77.1924 60.1036 76.4748 60.2304C75.9683 60.3148 75.5885 60.2515 75.3352 60.0403C75.2508 59.9558 75.1875 59.8713 75.1453 59.808C75.1031 59.7446 75.082 59.5757 75.1242 59.3434C75.1664 59.1111 75.1875 58.7521 75.293 58.2874C75.3774 57.8228 75.5252 57.1682 75.7362 56.3234C76.1161 54.6128 76.4537 52.9233 76.7492 51.2549C77.0446 49.6077 77.2979 47.7281 77.4878 45.6163C77.6778 43.5255 77.8677 41.0758 78.0365 38.3092C78.2054 35.5215 78.3531 32.1848 78.4797 28.2356C78.5641 26.4194 78.6485 24.8566 78.733 23.505C78.8174 22.1534 78.8807 21.4143 78.9229 21.2876C79.0495 20.9286 79.2394 20.7596 79.4927 20.7596C79.7459 20.7596 80.0414 20.9497 80.3791 21.3509C80.7167 21.7522 80.9278 22.1957 81.0122 22.6814C81.0544 23.1671 81.2021 23.9063 81.4343 24.8566C81.6664 25.8281 81.9196 26.884 82.194 28.0455C82.4684 29.186 82.7638 30.3264 83.0593 31.4457C83.3547 32.5649 83.6291 33.5153 83.9034 34.2544C84.5365 36.4719 85.0641 38.267 85.4862 39.6608C85.9083 41.0546 86.2248 42.1528 86.4781 42.9342C86.7102 43.7367 86.858 44.3069 86.9635 44.687C87.069 45.0672 87.1112 45.3417 87.1534 45.5107C87.2378 45.8697 87.3434 45.8697 87.47 45.5529C87.5966 45.215 87.9343 44.1591 88.483 42.3429C89.8336 37.6756 91.121 33.6209 92.3239 30.1996C93.5268 26.7784 94.793 23.6529 96.1226 20.823C96.6291 19.767 97.0301 18.9434 97.3044 18.331C97.5788 17.7397 97.7898 17.2962 97.9797 17.0005C98.1486 16.7048 98.2963 16.5359 98.4229 16.4725C98.5495 16.4092 98.6762 16.3669 98.8028 16.3669C99.1826 16.3669 99.6258 16.5359 100.132 16.8738C100.639 17.2117 100.998 17.5918 101.209 18.0353C101.377 18.3943 101.462 19.1968 101.462 20.4428C101.462 21.6888 101.356 23.2939 101.145 25.2368C100.47 31.8258 99.9846 37.2533 99.7103 41.5192C99.4359 45.8063 99.3304 49.3754 99.4148 52.2475C99.457 53.8736 99.5414 55.2886 99.6469 56.4501C99.7525 57.6116 99.9213 58.6253 100.153 59.4701C100.386 60.3148 100.66 61.0329 100.976 61.6242C101.293 62.2155 101.715 62.7646 102.222 63.2503L102.116 63.2081ZM56.9959 53.1556C56.9537 51.3394 57.0381 49.5443 57.2281 47.7281C57.418 45.9119 57.7346 43.7367 58.2199 41.1813C58.3888 40.2944 58.5154 39.5341 58.5998 38.9005C58.6842 38.267 58.7053 37.908 58.6631 37.8657C58.5787 37.7812 58.3677 37.8657 58.0511 38.1614C57.7346 38.457 57.3758 38.8372 56.9748 39.3229C56.5738 39.8086 56.1518 40.3366 55.7297 40.9068C55.3076 41.477 54.9488 41.9838 54.6534 42.4273C54.0625 43.3143 53.4927 44.3069 52.944 45.4051C52.3953 46.5032 51.8888 47.6648 51.4245 48.8474C50.9602 50.0301 50.5381 51.2338 50.1583 52.4587C49.7784 53.6836 49.4618 54.8029 49.2086 55.8588C49.082 56.3445 48.9553 56.6824 48.8498 56.8936C48.7443 57.0837 48.5966 57.2315 48.3644 57.316C47.5203 57.8017 46.8871 57.7172 46.4651 57.0415C46.1274 56.5135 45.8531 55.4575 45.642 53.8525C45.431 52.2686 45.3255 50.4947 45.3255 48.5517C45.3255 47.6225 45.3466 46.7989 45.3888 46.0597C45.431 45.3417 45.4943 44.6448 45.5787 44.0112C45.6631 43.3777 45.7897 42.7652 45.9586 42.195C46.1274 41.6248 46.3173 41.0335 46.5284 40.4C46.7394 39.872 46.9082 39.4919 47.0771 39.2807C47.2248 39.0484 47.457 38.8794 47.7524 38.7527C48.4277 38.4782 49.0186 38.4993 49.5251 38.7949C50.0316 39.0906 50.2849 39.5763 50.2849 40.2944C50.2849 40.5267 50.2216 41.0335 50.116 41.8571C50.0105 42.6808 49.9261 43.5255 49.8206 44.4125C49.6518 45.6374 49.5251 46.5877 49.4407 47.2213C49.3563 47.8548 49.3141 48.3406 49.2719 48.6362C49.2508 48.9319 49.2297 49.1008 49.2297 49.122C49.2297 49.1431 49.2297 49.122 49.2297 49.0797C49.2719 49.0375 49.3985 48.7841 49.6096 48.3406C49.8206 47.8971 50.0527 47.3691 50.306 46.7567C51.2768 44.5392 52.3742 42.5118 53.5771 40.6745C54.78 38.8161 55.8563 37.5278 56.7849 36.7675C57.207 36.4508 57.6712 36.2396 58.1566 36.1129C58.642 35.9862 59.1274 35.9439 59.5917 35.9862C60.056 36.0284 60.4781 36.1551 60.8579 36.3874C61.2378 36.6197 61.5333 36.9154 61.7443 37.3166C61.9553 37.7179 62.0398 38.4359 61.9975 39.4707C61.9553 40.5055 61.8287 42.005 61.6177 43.9479C61.3222 46.0597 61.0901 48.0449 60.9213 49.8822C60.7524 51.7195 60.6258 53.3246 60.5625 54.7184C60.4992 56.1122 60.4992 57.2737 60.5203 58.203C60.5625 59.1322 60.668 59.7446 60.8368 60.0614C61.2589 60.8639 61.7654 61.2441 62.3563 61.2441C62.7362 61.2441 62.905 61.3496 62.8628 61.5819C62.8206 61.8143 62.5885 62.0043 62.1664 62.1733C61.8287 62.2577 61.5122 62.3211 61.2167 62.3422C60.9212 62.3633 60.5203 62.3422 60.0138 62.2366C58.9586 62.0043 58.1777 61.1807 57.6924 59.7446C57.207 58.3086 56.9537 56.1122 56.9537 53.1556H56.9959ZM36.5251 42.8286C37.3693 41.646 37.7914 40.4211 37.7914 39.1962C37.7914 38.7527 37.728 38.5415 37.6014 38.5415C37.517 38.5415 37.4748 38.5415 37.4326 38.5837C37.4115 38.6049 37.3693 38.626 37.2638 38.626C36.5884 38.8583 35.8498 39.3229 35.0479 40.0198C34.2459 40.7167 33.4651 41.5826 32.7053 42.5752C31.9456 43.5677 31.2491 44.6659 30.616 45.8486C29.9829 47.0312 29.4764 48.2138 29.0965 49.3543C28.8855 50.1145 28.7378 50.8326 28.6534 51.5295C28.5689 52.2264 28.6112 52.5854 28.78 52.5854C28.8644 52.5854 29.0754 52.4376 29.392 52.1208C29.7086 51.8251 30.0884 51.4239 30.5105 50.9381C30.8482 50.5369 31.2702 50.0301 31.7767 49.3754C32.2832 48.7418 32.8319 48.0449 33.4017 47.2846C33.9715 46.5244 34.5414 45.7641 35.0901 45.0038C35.6388 44.2435 36.1241 43.5044 36.5462 42.8497L36.5251 42.8286ZM40.7248 38.5837C40.8936 38.7527 41.0203 38.9005 41.1047 39.0061C41.1891 39.1117 41.2313 39.3018 41.2313 39.5341C41.2313 39.7664 41.1891 40.1254 41.1258 40.5689C41.0625 41.0124 40.9569 41.6248 40.8303 42.4273C40.4927 44.5392 40.2183 46.3343 40.0073 47.8337C39.7962 49.312 39.6274 50.558 39.5219 51.5506C39.4164 52.5432 39.353 53.3457 39.353 53.937C39.353 54.5283 39.3953 55.0141 39.4797 55.352C39.6063 55.9222 39.7329 56.1122 39.9017 55.8799C40.0495 55.6476 40.3238 55.183 40.7037 54.4861C40.8303 54.2538 41.0203 53.9159 41.2524 53.4301C41.4845 52.9444 41.7589 52.3953 42.0755 51.7829C42.392 51.1705 42.7508 50.4947 43.1306 49.7978C43.5105 49.1008 43.8693 48.3828 44.207 47.6859C45.0933 45.7852 45.7475 44.4758 46.1696 43.7156C46.5917 42.9553 46.866 42.5963 46.9927 42.5963C47.2881 42.5963 47.4781 42.7441 47.5414 43.0187C47.6047 43.3143 47.5414 43.6733 47.3725 44.1168C46.9083 45.5318 46.3806 46.9678 45.8108 48.4461C45.241 49.9245 44.6712 51.2972 44.1225 52.5432C43.5738 53.8103 43.0673 54.8873 42.6031 55.7954C42.1388 56.7035 41.78 57.2526 41.5268 57.4216C40.7248 58.1185 39.7751 58.2663 38.6777 57.8228C37.7491 57.4638 37.0949 56.788 36.7362 55.7954C36.3774 54.8029 36.1664 53.1556 36.0608 50.8537L35.9342 47.5381L34.7946 49.3331C34.0349 50.5158 33.2751 51.5928 32.5154 52.522C31.7556 53.4513 31.1225 54.0637 30.616 54.3805C29.603 55.0352 28.4423 54.9718 27.1128 54.1904C24.8336 53.0078 24.3482 50.368 25.6566 46.3132C26.0787 45.0249 26.6274 43.8634 27.2816 42.7652C27.9358 41.6882 28.7378 40.6323 29.6664 39.6186C31.7767 37.4645 33.7605 36.3874 35.5754 36.3874H36.2086C36.4196 36.3874 36.6306 36.3874 36.8417 36.4297C37.6436 36.5986 38.4034 36.8943 39.1209 37.2955C39.8384 37.6968 40.366 38.1403 40.7037 38.626L40.7248 38.5837ZM2.27347 31.9736C2.35788 30.791 2.75886 29.4816 3.45529 28.0667C4.15172 26.6517 5.05918 25.279 6.15659 23.9697C7.25399 22.6392 8.49912 21.4143 9.87088 20.295C11.2426 19.1757 12.6777 18.2676 14.155 17.6129C15.7167 16.9583 17.2572 16.6837 18.7556 16.8527C20.254 17.0005 21.4358 17.5918 22.28 18.6055C22.7021 19.0912 22.9764 19.6403 23.103 20.2317C23.2297 20.823 23.1874 21.5832 22.9764 22.5125C22.7654 23.7373 22.4488 24.6666 22.0267 25.2579C21.6047 25.8492 21.0982 26.0604 20.5073 25.8915C20.043 25.7647 19.7686 25.5958 19.7053 25.3846C19.642 25.1945 19.7053 24.7299 19.9374 24.033C20.3173 22.6603 20.5073 21.4988 20.5073 20.5273C20.5073 19.5559 20.2962 18.9434 19.8741 18.6689C19.5787 18.4999 19.0722 18.521 18.3758 18.7322C17.6793 18.9645 16.8985 19.3024 16.0543 19.7882C15.3368 20.2316 14.5559 20.8441 13.7329 21.6466C12.9098 22.4491 12.0868 23.3361 11.2848 24.2864C10.4829 25.2579 9.74425 26.2505 9.06893 27.2642C8.3936 28.2778 7.8449 29.2282 7.42282 30.1152C6.95854 31.0866 6.68419 32.037 6.62087 32.924C6.55756 33.8321 6.68419 34.529 7.04295 35.0147C7.16958 35.2892 7.33841 35.5004 7.52834 35.6694C7.71828 35.8383 7.99263 36.0284 8.3514 36.1973C8.71016 36.3663 9.19555 36.5564 9.78646 36.7253C10.3774 36.8943 11.1582 37.1266 12.129 37.38C13.4374 37.739 14.5982 38.098 15.6322 38.4782C16.6452 38.8583 17.5738 39.2384 18.3969 39.6608C19.2199 40.0832 19.9585 40.5478 20.6128 41.0546C21.267 41.5615 21.9001 42.1528 22.491 42.8075C24.3904 44.7926 25.1501 46.9045 24.7491 49.1642C24.3482 51.4239 22.7654 53.9581 20.0219 56.788C15.78 61.2863 11.1582 63.6727 6.17769 63.9472C5.33354 63.9895 4.67931 63.9895 4.23613 63.9472C3.79295 63.905 3.39197 63.8205 3.05431 63.6727C2.4634 63.4404 1.97801 63.1447 1.61925 62.7435C1.26048 62.3422 0.922817 61.8143 0.56405 61.1596C-0.0268595 59.9347 -0.153483 58.6465 0.18418 57.316C0.521842 55.9855 1.23938 54.7606 2.33678 53.5991C3.05431 52.8388 3.62412 52.3742 4.0462 52.1842C4.46827 51.9941 4.91146 51.9307 5.37574 52.0152C5.71341 52.0997 5.88224 52.2053 5.88224 52.3531C5.88224 52.5009 5.6712 52.691 5.24912 52.9444C4.99587 53.0711 4.74263 53.3457 4.48938 53.7469C4.23613 54.1482 3.98288 54.5917 3.75074 55.0985C3.5186 55.6054 3.32866 56.1333 3.18094 56.6824C3.03321 57.2315 2.92769 57.7383 2.88548 58.1818C2.84327 59.0688 2.94879 59.8291 3.20204 60.4627C3.45529 61.0962 3.85626 61.5608 4.40496 61.8143C4.91146 62.1099 5.60789 62.2366 6.47315 62.1733C7.33841 62.1099 8.22477 61.8987 9.11114 61.5397C10.3774 61.0117 11.6858 60.2092 13.0576 59.1533C14.4082 58.0974 15.6322 56.9359 16.7508 55.6687C17.8482 54.4016 18.7978 53.1134 19.5787 51.7618C20.3595 50.4102 20.8238 49.2064 20.9504 48.1505C21.1615 46.1653 20.0852 44.1168 17.7004 41.9838C16.8563 41.2236 15.9066 40.6323 14.8725 40.1888C13.8384 39.7453 12.4033 39.2807 10.5884 38.7949C9.4488 38.5204 8.47802 38.267 7.67607 38.0347C6.87412 37.8024 6.1988 37.5489 5.65009 37.3166C5.10139 37.0843 4.63711 36.7887 4.25724 36.493C3.87736 36.1762 3.5186 35.8383 3.18094 35.4371C2.71665 34.9513 2.42119 34.4867 2.31568 34.0432C2.21016 33.5997 2.18905 32.9028 2.27347 31.9314V31.9736Z" fill="#F5EFEC"/>
</svg>
